<?xml version="1.0" encoding="UTF-8"?>
<svg version="1.1" xmlns="http://www.w3.org/2000/svg" width="453" height="497">
<path d="M0 0 C0.72828247 -0.00367669 1.45656494 -0.00735338 2.20691657 -0.01114148 C4.66584442 -0.02222136 7.12473007 -0.02602942 9.5836792 -0.02983093 C11.33923987 -0.03609239 13.0947992 -0.0427389 14.85035706 -0.04974365 C19.63353424 -0.06718417 24.4167014 -0.07771389 29.19990253 -0.08594918 C32.18614439 -0.09109328 35.1723831 -0.0971693 38.15862274 -0.10346031 C47.49556545 -0.1225216 56.8325002 -0.13675026 66.16945863 -0.14507228 C76.95888791 -0.15484666 87.74811214 -0.1811675 98.53746915 -0.22157317 C106.86871049 -0.25170584 115.19989298 -0.26653848 123.53118777 -0.26985329 C128.51078545 -0.27220723 133.4901643 -0.28121194 138.46970367 -0.30631447 C143.15482793 -0.32955013 147.8395886 -0.33384664 152.52475548 -0.32355309 C154.2448796 -0.3230565 155.96502135 -0.32941304 157.68509102 -0.34310913 C160.03309317 -0.36075958 162.37978091 -0.35375676 164.7277832 -0.34057617 C166.04188297 -0.34296453 167.35598274 -0.34535288 168.70990372 -0.34781361 C172.71980719 0.23460033 174.31252627 1.26869951 177.11785889 4.14717102 C179.56477393 7.58649299 179.36458259 10.82918211 179.35836792 14.96815491 C179.36093119 15.99621132 179.36093119 15.99621132 179.36354625 17.04503655 C179.36683936 19.34058112 179.35584057 21.63583309 179.34490967 23.93135071 C179.34434551 25.57723992 179.34466219 27.22312964 179.34579468 28.86901855 C179.34636903 33.33769146 179.33460134 37.80625722 179.32064676 42.2749052 C179.30815319 46.94474432 179.30696999 51.61458583 179.30459595 56.28443909 C179.29837714 65.12769663 179.2819609 73.97090478 179.26189697 82.81414056 C179.23955044 92.88174948 179.22854767 102.94936074 179.2185061 113.01698828 C179.19759503 133.72707677 179.16241125 154.43712078 179.11785889 175.14717102 C176.39734603 176.05400864 174.79052883 176.27559649 171.99285889 176.27998352 C170.80949951 176.28191711 170.80949951 176.28191711 169.60223389 176.28388977 C168.78239014 176.28002258 167.96254639 176.2761554 167.11785889 176.27217102 C166.29801514 176.27603821 165.47817139 176.2799054 164.63348389 176.28388977 C163.84457764 176.28260071 163.05567139 176.28131165 162.24285889 176.27998352 C161.52356201 176.27885559 160.80426514 176.27772766 160.06317139 176.27656555 C158.11785889 176.14717102 158.11785889 176.14717102 155.11785889 175.14717102 C154.78785889 131.58717102 154.45785889 88.02717102 154.11785889 43.14717102 C152.79785889 44.46717102 151.47785889 45.78717102 150.11785889 47.14717102 C149.45785889 47.14717102 148.79785889 47.14717102 148.11785889 47.14717102 C147.45785889 48.46717102 146.79785889 49.78717102 146.11785889 51.14717102 C145.45785889 51.14717102 144.79785889 51.14717102 144.11785889 51.14717102 C143.91160889 51.70404602 143.70535889 52.26092102 143.49285889 52.83467102 C141.96276995 55.40800241 140.10990436 56.87767457 137.77410889 58.70967102 C135.34397547 60.81884342 133.40986282 63.27633811 131.41473389 65.79170227 C130.77278076 66.4626593 130.77278076 66.4626593 130.11785889 67.14717102 C129.45785889 67.14717102 128.79785889 67.14717102 128.11785889 67.14717102 C128.11785889 67.80717102 128.11785889 68.46717102 128.11785889 69.14717102 C125.16692903 72.38367474 121.91513527 75.2057469 118.61785889 78.08467102 C116.00959637 80.37821756 113.59450625 82.61723032 111.43035889 85.33467102 C108.92078499 88.38685549 106.17974686 90.65938704 103.11785889 93.14717102 C101.43793194 94.80047106 99.7735693 96.46961966 98.11785889 98.14717102 C97.08235274 99.18581343 96.04616821 100.22377979 95.00942707 101.26118946 C93.82487187 102.44832569 92.64033955 103.63548475 91.45582581 104.82266235 C90.09194596 106.18947504 88.72805908 107.55628071 87.36416626 108.92308044 C86.2774016 110.01217146 86.2774016 110.01217146 85.1686821 111.12326431 C69.00114031 127.32508447 52.82848559 143.52179207 36.65223925 159.71492131 C34.26517118 162.10449039 31.87814698 164.49410329 29.4911499 166.88374329 C29.01600367 167.35941414 28.54085743 167.835085 28.05131283 168.32517012 C20.33563335 176.04957677 12.62349108 183.77750591 4.91262165 191.50671384 C-3.00524095 199.44325008 -10.92694585 207.37593661 -18.85204297 215.30524987 C-23.30132988 219.75714994 -27.74882343 224.21080968 -32.19215965 228.66864967 C-36.36486924 232.85487249 -40.54218053 237.03644584 -44.7231617 241.21440697 C-46.26085048 242.75264856 -47.79681026 244.29262065 -49.33095551 245.83439636 C-51.41643551 247.92974456 -53.50789807 250.01892684 -55.60105896 252.1065979 C-56.21437441 252.72573903 -56.82768985 253.34488016 -57.45959061 253.98278314 C-61.65389767 258.14717102 -61.65389767 258.14717102 -63.88214111 258.14717102 C-64.13995361 258.72982727 -64.39776611 259.31248352 -64.66339111 259.91279602 C-65.98048128 262.32746132 -67.43302495 263.9645728 -69.38214111 265.89717102 C-69.99057861 266.51076477 -70.59901611 267.12435852 -71.22589111 267.75654602 C-72.88214111 269.14717102 -72.88214111 269.14717102 -74.88214111 269.14717102 C-75.15131348 269.74100586 -75.42048584 270.3348407 -75.69781494 270.94667053 C-76.88323063 273.14919536 -78.07320244 274.59166696 -79.83135986 276.35517883 C-80.42537598 276.95549927 -81.01939209 277.5558197 -81.63140869 278.17433167 C-82.27102539 278.8098999 -82.91064209 279.44546814 -83.56964111 280.10029602 C-84.22794922 280.76051758 -84.88625732 281.42073914 -85.56451416 282.10096741 C-86.95406403 283.49187603 -88.34613386 284.8802711 -89.74053955 286.26631165 C-91.88123398 288.39626843 -94.01102021 290.53671598 -96.13995361 292.67842102 C-97.49087499 294.02802141 -98.8424163 295.37700161 -100.19464111 296.72529602 C-100.83425781 297.36896118 -101.47387451 298.01262634 -102.13287354 298.67579651 C-106.652212 303.14717102 -106.652212 303.14717102 -108.88214111 303.14717102 C-108.88214111 303.80717102 -108.88214111 304.46717102 -108.88214111 305.14717102 C-110.16729736 306.37373352 -110.16729736 306.37373352 -111.94464111 307.77217102 C-115.54437193 310.72804754 -118.45682186 314.00959555 -121.40167236 317.60810852 C-121.89022705 318.11599915 -122.37878174 318.62388977 -122.88214111 319.14717102 C-123.54214111 319.14717102 -124.20214111 319.14717102 -124.88214111 319.14717102 C-125.12964111 319.72467102 -125.37714111 320.30217102 -125.63214111 320.89717102 C-127.065141 323.47657081 -128.66638788 325.20838694 -130.88214111 327.14717102 C-131.54214111 327.14717102 -132.20214111 327.14717102 -132.88214111 327.14717102 C-133.25919189 328.03275696 -133.25919189 328.03275696 -133.64385986 328.93623352 C-135.03700517 331.42367909 -136.49178872 332.72787825 -138.69464111 334.52217102 C-141.30431935 336.70789431 -143.51960597 338.8062009 -145.56964111 341.52217102 C-147.88214111 344.14717102 -147.88214111 344.14717102 -150.28057861 344.99873352 C-152.88214111 345.14717102 -152.88214111 345.14717102 -154.90948486 343.95967102 C-156.92735458 342.04496437 -158.93025042 340.12944134 -160.88214111 338.14717102 C-161.50346924 337.5361554 -162.12479736 336.92513977 -162.76495361 336.29560852 C-166.76672752 332.07047979 -166.76672752 332.07047979 -167.19464111 328.64717102 C-165.15412299 324.76046983 -162.08146549 322.10196105 -158.88214111 319.14717102 C-157.99526611 318.26029602 -157.10839111 317.37342102 -156.19464111 316.45967102 C-155.43151611 315.69654602 -154.66839111 314.93342102 -153.88214111 314.14717102 C-152.79932861 313.00248352 -152.79932861 313.00248352 -151.69464111 311.83467102 C-149.88214111 310.14717102 -149.88214111 310.14717102 -147.88214111 310.14717102 C-147.55214111 309.15717102 -147.22214111 308.16717102 -146.88214111 307.14717102 C-144.56323007 304.63501739 -142.22571427 302.40937159 -139.50714111 300.33467102 C-136.49191436 297.82198206 -134.11769852 295.01009768 -131.57745361 292.02998352 C-129.54838667 289.77650364 -127.25867207 288.02337967 -124.88214111 286.14717102 C-123.68888546 284.69591415 -122.49679515 283.24355647 -121.32354736 281.77607727 C-119.68009991 279.91884804 -117.90024828 278.37346976 -116.00714111 276.77217102 C-112.49672365 273.78864548 -109.57139745 270.56401942 -106.60089111 267.05342102 C-104.44059454 264.65745573 -102.04871364 262.68413066 -99.56182861 260.63935852 C-97.83417645 259.10456055 -96.41125861 257.493395 -94.94464111 255.70967102 C-92.21591762 252.40455941 -89.18966929 249.6708654 -85.90948486 246.92060852 C-80.4949905 242.18423002 -75.83591413 236.76487143 -71.08917236 231.37763977 C-69.99669189 230.27355774 -69.99669189 230.27355774 -68.88214111 229.14717102 C-68.22214111 229.14717102 -67.56214111 229.14717102 -66.88214111 229.14717102 C-66.55214111 228.15717102 -66.22214111 227.16717102 -65.88214111 226.14717102 C-64.32723188 224.61147159 -64.32723188 224.61147159 -62.34008026 222.97259426 C-57.85730494 219.16552811 -53.70386158 215.10566543 -49.55511475 210.94039917 C-48.75607019 210.14220904 -47.95702563 209.34401891 -47.1337676 208.52164119 C-44.47524854 205.86476026 -41.82030319 203.20433764 -39.16534424 200.54389954 C-37.25335229 198.63106726 -35.340604 196.71899195 -33.42788696 194.80688477 C-29.31971924 190.69923965 -25.21337642 186.58977762 -21.10829163 182.47905159 C-15.17313335 176.53574251 -9.23519313 170.59521921 -3.29658526 164.65535723 C6.33994113 155.01664593 15.97423544 145.37570679 25.6071167 135.73335266 C34.96075794 126.37052276 44.31545607 117.00875091 53.67156982 107.64839172 C54.24894518 107.07075365 54.82632053 106.49311557 55.42119211 105.89797331 C58.31791962 102.99994069 61.21466784 100.10192878 64.11142635 97.20392716 C88.11678178 73.18821661 112.11851068 49.16888469 136.11785889 25.14717102 C135.38179696 25.14293908 134.64573503 25.13870714 133.8873682 25.13434696 C116.00321402 25.03118299 98.11910062 24.92256693 80.23501682 24.80783176 C71.58652174 24.75247984 62.93802255 24.69899467 54.28948975 24.64985657 C46.7541872 24.60703878 39.21891527 24.56076697 31.68365997 24.51029247 C27.69131835 24.48367207 23.69898287 24.4588186 19.70660591 24.438097 C15.95315815 24.41856104 12.19976877 24.3944266 8.44637299 24.36668015 C7.06484216 24.35729353 5.68329851 24.34962408 4.30174828 24.34375191 C2.42345551 24.33551808 0.54519521 24.32065244 -1.33305359 24.3053894 C-2.91346766 24.29571058 -2.91346766 24.29571058 -4.52580929 24.28583622 C-6.88214111 24.14717102 -6.88214111 24.14717102 -7.88214111 23.14717102 C-7.98130682 21.52459558 -8.01293888 19.89777271 -8.01495361 18.27217102 C-8.01624268 17.28732727 -8.01753174 16.30248352 -8.01885986 15.28779602 C-8.01499268 14.25138977 -8.01112549 13.21498352 -8.00714111 12.14717102 C-8.0110083 11.11076477 -8.01487549 10.07435852 -8.01885986 9.00654602 C-8.01692627 7.5292804 -8.01692627 7.5292804 -8.01495361 6.02217102 C-8.01382568 5.1120929 -8.01269775 4.20201477 -8.01153564 3.26435852 C-7.72740746 -1.38462197 -3.84617395 0.01252221 0 0 Z " fill="#FDFAFD" transform="translate(216.88214111328125,40.85282897949219)"/>
</svg>
